<?xml version="1.0" encoding="iso-8859-1"?>
<!-- Uploaded to: SVG Repo, www.svgrepo.com, Generator: SVG Repo Mixer Tools -->
<svg height="800px" width="800px" version="1.1" id="Layer_1" xmlns="http://www.w3.org/2000/svg" xmlns:xlink="http://www.w3.org/1999/xlink" 
	 viewBox="0 0 512.004 512.004" xml:space="preserve">
<path style="fill:#28CC9E;" d="M451.854,125.343c8.851-8.851,8.851-23.203,0-32.054l-33.14-33.14
	c-8.851-8.851-23.203-8.851-32.054,0l-32.868,32.868c-9.001,9.002-23.596,9.002-32.596,0s-23.596-9.002-32.596,0L93.019,288.598
	c-9.001,9.002-9.001,23.596,0,32.596l0,0c9.001,9.001,9.001,23.596,0,32.596L60.151,386.66c-8.851,8.851-8.851,23.203,0,32.054
	l33.14,33.14c8.851,8.851,23.203,8.851,32.054,0l32.868-32.868c9.001-9.002,23.596-9.002,32.596,0
	c9.001,9.001,23.596,9.001,32.596,0l114.089-114.089l49.167-49.167l32.326-32.326c9.001-9.001,9.001-23.596,0-32.596l0,0
	c-9.001-9.001-9.001-23.596,0-32.596L451.854,125.343z"/>
<path d="M372.713,275.905c-0.288-0.691-0.634-1.36-1.049-1.994c-0.426-0.622-0.91-1.222-1.441-1.752
	c-0.53-0.53-1.118-1.014-1.752-1.429c-0.622-0.415-1.291-0.772-1.982-1.06c-0.703-0.288-1.429-0.507-2.155-0.657
	c-1.487-0.3-3.019-0.3-4.506,0c-0.738,0.15-1.464,0.369-2.155,0.657c-0.703,0.288-1.371,0.645-1.994,1.06
	c-0.634,0.415-1.222,0.899-1.752,1.429c-2.144,2.155-3.377,5.117-3.377,8.159c0,0.749,0.081,1.498,0.23,2.247
	c0.15,0.738,0.369,1.464,0.657,2.155c0.288,0.691,0.645,1.36,1.06,1.994c0.415,0.622,0.899,1.222,1.429,1.752
	c0.53,0.53,1.118,1.014,1.752,1.429c0.622,0.415,1.291,0.772,1.994,1.06c0.691,0.288,1.418,0.507,2.155,0.657
	c0.738,0.15,1.498,0.23,2.247,0.23c0.749,0,1.51-0.081,2.259-0.23c0.726-0.15,1.452-0.369,2.155-0.657
	c0.691-0.288,1.36-0.645,1.982-1.06c0.634-0.415,1.222-0.899,1.752-1.429c0.53-0.53,1.014-1.129,1.441-1.752
	c0.415-0.634,0.761-1.302,1.049-1.994c0.288-0.691,0.519-1.418,0.668-2.155c0.15-0.749,0.219-1.498,0.219-2.247
	c0-0.761-0.069-1.51-0.219-2.259C373.231,277.323,373.001,276.597,372.713,275.905z"/>
<path d="M508.627,166.361c-4.5-4.5-11.798-4.5-16.299,0l-8.149,8.149l-32.596-32.596l8.421-8.421
	c13.329-13.331,13.329-35.021,0-48.352L426.863,52c-13.331-13.328-35.021-13.331-48.353,0l-8.42,8.42l-32.596-32.596l8.149-8.149
	c4.5-4.5,4.5-11.798,0-16.299c-4.5-4.5-11.798-4.5-16.299,0l-32.596,32.596c-4.5,4.5-4.5,11.798,0,16.299
	c2.251,2.251,5.2,3.376,8.149,3.376s5.899-1.125,8.149-3.376l8.149-8.149l32.596,32.596l-8.149,8.149
	c-4.492,4.493-11.806,4.492-16.298,0c-6.531-6.531-15.213-10.127-24.447-10.127c-9.235,0-17.917,3.597-24.447,10.127L84.87,280.449
	c-6.531,6.53-10.127,15.213-10.127,24.447c0,9.235,3.597,17.917,10.127,24.447c4.493,4.493,4.493,11.805,0,16.298l-8.149,8.149
	l-32.596-32.596l8.149-8.149c4.5-4.5,4.5-11.798,0-16.299c-4.5-4.5-11.798-4.5-16.299,0L3.378,329.344c-4.5,4.5-4.5,11.798,0,16.299
	c2.251,2.251,5.2,3.376,8.149,3.376s5.899-1.125,8.149-3.376l8.149-8.149l32.596,32.596L52,378.512
	c-13.329,13.331-13.329,35.021,0,48.352l33.14,33.14c6.666,6.666,15.419,9.998,24.176,9.998c8.754,0,17.512-3.334,24.176-9.998
	l8.42-8.42l32.596,32.596l-8.149,8.149c-4.5,4.5-4.5,11.798,0,16.299c2.251,2.251,5.2,3.376,8.149,3.376s5.899-1.125,8.149-3.376
	l32.596-32.596c4.5-4.5,4.5-11.798,0-16.299c-4.5-4.5-11.798-4.5-16.299,0l-8.149,8.149l-32.596-32.596l8.149-8.149
	c4.493-4.492,11.807-4.491,16.298,0c6.531,6.531,15.213,10.127,24.447,10.127s17.917-3.597,24.447-10.127l114.089-114.087
	c4.5-4.5,4.5-11.798,0-16.298c-4.5-4.502-11.798-4.502-16.299,0L215.254,410.838c-4.493,4.493-11.806,4.493-16.298,0
	c-6.531-6.53-15.213-10.127-24.448-10.127c-9.235,0-17.917,3.597-24.447,10.127l-8.148,8.148l-48.895-48.895l8.149-8.149
	c6.53-6.53,10.127-15.213,10.127-24.447c0-9.236-3.597-17.917-10.127-24.448c-4.493-4.493-4.493-11.805,0-16.298l195.581-195.581
	c4.493-4.493,11.806-4.493,16.298,0c6.531,6.53,15.213,10.127,24.448,10.127c9.235,0,17.917-3.597,24.447-10.127l8.148-8.148
	l48.895,48.895l-8.149,8.149c-6.53,6.53-10.127,15.213-10.127,24.447c0,9.236,3.597,17.917,10.127,24.448
	c4.493,4.493,4.493,11.805,0,16.298l-32.326,32.324c-4.5,4.5-4.5,11.798,0,16.299c4.5,4.499,11.798,4.499,16.299,0l32.324-32.326
	c6.531-6.53,10.127-15.213,10.127-24.447s-3.597-17.917-10.127-24.447c-4.493-4.493-4.493-11.805,0-16.298l8.149-8.149
	l32.596,32.596l-8.149,8.149c-4.5,4.5-4.5,11.798,0,16.299c2.251,2.251,5.2,3.376,8.149,3.376s5.899-1.125,8.149-3.376
	l32.596-32.596C513.127,178.16,513.127,170.862,508.627,166.361z M125.616,435.285l-8.42,8.42c-4.344,4.344-11.413,4.344-15.755,0
	l-33.14-33.14c-4.344-4.344-4.344-11.411,0-15.754l8.421-8.421L125.616,435.285z M386.389,76.719l8.42-8.42
	c4.344-4.344,11.412-4.345,15.755,0l33.14,33.14c4.344,4.344,4.344,11.411,0,15.754l-8.421,8.421L386.389,76.719z"/>
</svg>