<?xml version="1.0" encoding="utf-8"?>
<!-- Uploaded to: SVG Repo, www.svgrepo.com, Generator: SVG Repo Mixer Tools -->
<svg width="800px" height="800px" viewBox="0 0 1024 1024" class="icon"  version="1.1" xmlns="http://www.w3.org/2000/svg"><path d="M360.369321 953.683424s-148.049163 100.821274-266.940238-17.659123S-4.312112 737.256493 205.133306 527.811076L686.241749 47.729325s170.225736-59.753546 237.166135 7.186853c0 0 156.05737 180.28733 12.320318 324.02438" fill="#C7DB6F" /><path d="M809.342267 439.227984l69.691936-69.691935 69.712469 69.691935-69.712469 69.691936zM519.055025 148.879141l69.691936-69.691936 69.71247 69.691936-69.71247 69.691936z" fill="#FFFFFF" /><path d="M956.056728 403.581196l-45.790518-45.790518a39.630358 39.630358 0 0 0-55.852111 0l-17.453785 17.453785-188.706214-188.706214-28.952749 28.952749 188.706214 188.706214-13.757689 13.757689a39.630358 39.630358 0 0 0 0 55.852111l45.585179 46.201195a39.630358 39.630358 0 0 0 55.852112 0l60.164222-60.164223a39.630358 39.630358 0 0 0 0.205339-56.262788z m-88.295617 86.036892l-43.531793-43.531793 58.110837-58.110836 43.531792 43.531792z" fill="#141E3E" /><path d="M665.707885 113.232353l-45.790518-44.969163a39.630358 39.630358 0 0 0-55.852111 0l-60.164223 60.164222a39.630358 39.630358 0 0 0 0 55.852112l45.790518 45.790517a39.630358 39.630358 0 0 0 55.852111 0l60.164223-60.164222a39.630358 39.630358 0 0 0 0-56.673466z m-88.295617 86.036892L533.880475 155.737452l58.110837-58.110836 43.531792 43.531792z" fill="#141E3E" /><path d="M635.728443 126.374026l24.22996-24.22996c67.145737-67.145737 196.714421-87.474262 269.814979-14.579044l6.160159 6.160159c73.100557 73.100557 52.566693 202.669242-14.579044 269.814979l-24.22996 24.22996 28.952749 29.568765 24.22996-24.22996c91.170358-91.170358 97.946533-244.352987 14.579044-328.541831l-6.16016-6.160159c-83.36749-83.36749-236.550118-76.591314-328.541831 14.579043l-24.22996 24.22996zM830.389478 454.50518L363.4494 921.445257c-67.145737 67.145737-196.714421 87.474262-269.814978 14.579044l-6.16016-6.16016c-73.100557-73.100557-52.566693-202.669242 14.579044-269.814978L568.993383 193.109085 540.040635 164.156337 73.100557 630.891075c-91.170358 91.170358-97.946533 244.352987-14.579043 328.541831l6.160159 6.160159c83.36749 83.36749 236.550118 76.591314 328.541831-14.579043L860.36892 483.457928z" fill="#19264A" /><path d="M373.469926 874.812851l69.691936-69.691936 69.691936 69.691936-69.691936 69.691936zM83.182685 584.464008l69.691936-69.691936 69.691936 69.691936-69.691936 69.691935z" fill="#FFFFFF" /><path d="M520.328125 839.10446l-45.790518-45.790517a39.630358 39.630358 0 0 0-55.852111 0l-17.453785 17.453785-188.706214-188.090199-29.774104 28.542072 188.706215 188.706214-13.75769 13.757689a39.630358 39.630358 0 0 0 0 55.852111l45.790518 45.790518a39.630358 39.630358 0 0 0 55.852111 0l60.164223-60.164223a39.630358 39.630358 0 0 0 0.821355-56.05745z m-88.295617 86.036892l-43.94247-43.531792 58.110836-58.110837 43.531793 43.531793z" fill="#141E3E" /><path d="M229.979282 548.755617l-45.790518-45.790517a39.630358 39.630358 0 0 0-55.852111 0l-60.164223 60.164222a39.630358 39.630358 0 0 0 0 55.852112l45.790518 45.790517a39.630358 39.630358 0 0 0 55.852111 0l60.164223-60.164222a39.630358 39.630358 0 0 0 0-55.852112z m-88.295617 86.036892l-43.531793-43.531792 58.110836-58.110837 43.531793 43.531793z" fill="#141E3E" /></svg>