<?xml version="1.0" encoding="iso-8859-1"?>
<!-- Uploaded to: SVG Repo, www.svgrepo.com, Generator: SVG Repo Mixer Tools -->
<svg version="1.1" id="Layer_1" xmlns="http://www.w3.org/2000/svg" xmlns:xlink="http://www.w3.org/1999/xlink" 
	 viewBox="0 0 512 512" xml:space="preserve">
<path style="fill:#F9D84E;" d="M330.473,504.242H181.527c-18.28,0-33.099-14.819-33.099-33.099V132.203
	c0-5.638,1.441-11.183,4.185-16.109l50.893-91.346c5.843-10.488,16.907-16.99,28.914-16.99h47.16
	c12.006,0,23.071,6.502,28.914,16.99l50.893,91.346c2.744,4.926,4.185,10.471,4.185,16.109v338.941
	C363.572,489.423,348.753,504.242,330.473,504.242z"/>
<path style="fill:#FFC20D;" d="M164.978,471.143V132.203c0-5.638,1.441-11.183,4.185-16.109l50.893-91.346
	c5.843-10.488,16.907-16.99,28.914-16.99H232.42c-12.007,0-23.071,6.502-28.914,16.99l-50.893,91.346
	c-2.744,4.926-4.185,10.471-4.185,16.109v338.941c0,18.28,14.819,33.099,33.099,33.099h16.549
	C179.797,504.242,164.978,489.423,164.978,471.143z"/>
<g>
	<polygon style="fill:#FD5E95;" points="189.802,239.451 148.428,260.137 148.428,320.693 181.527,338.747 	"/>
	<polygon style="fill:#FD5E95;" points="337.713,234.224 246.128,194.974 261.829,304.875 	"/>
	<path style="fill:#FD5E95;" d="M197.627,174.54l30.446-94.876l-63.709,15.339l-11.75,21.089c-2.523,4.527-3.928,9.58-4.142,14.747
		L197.627,174.54z"/>
</g>
<g>
	<polygon style="fill:#D14D7B;" points="148.428,260.137 148.428,320.693 164.978,329.72 164.978,251.863 	"/>
	<path style="fill:#D14D7B;" d="M169.163,116.093l14.313-25.691l-19.114,4.602l-11.75,21.089c-2.523,4.527-3.928,9.58-4.142,14.747
		l16.506,14.674v-13.311C164.978,126.563,166.419,121.018,169.163,116.093z"/>
</g>
<g>
	<path style="fill:#FD5E95;" d="M328.406,60.486l-19.912-35.739c-5.843-10.488-16.907-16.99-28.914-16.99h-10.894l12.565,82.747
		L328.406,60.486z"/>
	<polygon style="fill:#FD5E95;" points="304.871,415.808 363.572,384.991 363.572,341.329 318.641,305.648 	"/>
	<polygon style="fill:#FD5E95;" points="189.024,482.006 280.824,433.812 202.794,371.846 	"/>
</g>
<polygon style="fill:#909296;" points="173.253,140.154 173.253,173.253 231.176,173.253 239.451,206.352 272.549,206.352 
	280.824,173.253 338.747,173.253 338.747,140.154 "/>
<rect x="338.747" y="115.329" style="fill:#DBA2D6;" width="49.648" height="82.747"/>
<g>
	<rect x="338.747" y="164.978" style="fill:#B169BF;" width="49.648" height="33.099"/>
	<rect x="338.747" y="115.329" style="fill:#B169BF;" width="49.648" height="33.099"/>
</g>
<rect x="338.747" y="181.527" style="fill:#844A8F;" width="49.648" height="16.549"/>
<rect x="123.604" y="115.329" style="fill:#DBA2D6;" width="49.648" height="82.747"/>
<g>
	<rect x="123.604" y="164.978" style="fill:#B169BF;" width="49.648" height="33.099"/>
	<rect x="123.604" y="115.329" style="fill:#B169BF;" width="49.648" height="33.099"/>
</g>
<rect x="123.604" y="181.527" style="fill:#844A8F;" width="49.648" height="16.549"/>
<polygon style="fill:#BDBDC0;" points="338.747,438.044 338.747,404.945 280.824,404.945 272.549,371.846 239.451,371.846 
	231.176,404.945 173.253,404.945 173.253,438.044 "/>
<polygon style="fill:#909296;" points="338.747,438.044 338.747,404.945 280.824,404.945 272.549,371.846 239.451,371.846 
	231.176,404.945 173.253,404.945 173.253,438.044 "/>
<g>
	<rect x="123.604" y="380.121" style="fill:#DBA2D6;" width="49.648" height="16.549"/>
	<rect x="338.747" y="380.121" style="fill:#DBA2D6;" width="49.648" height="16.549"/>
	<rect x="338.747" y="380.121" style="fill:#DBA2D6;" width="49.648" height="82.747"/>
</g>
<g>
	<rect x="338.747" y="429.77" style="fill:#B169BF;" width="49.648" height="33.099"/>
	<rect x="338.747" y="380.121" style="fill:#B169BF;" width="49.648" height="33.099"/>
</g>
<rect x="338.747" y="446.319" style="fill:#844A8F;" width="49.648" height="16.549"/>
<rect x="123.604" y="380.121" style="fill:#DBA2D6;" width="49.648" height="82.747"/>
<g>
	<rect x="123.604" y="429.77" style="fill:#B169BF;" width="49.648" height="33.099"/>
	<rect x="123.604" y="380.121" style="fill:#B169BF;" width="49.648" height="33.099"/>
</g>
<rect x="123.604" y="446.319" style="fill:#844A8F;" width="49.648" height="16.549"/>
<path d="M363.572,238.933c4.285,0,7.758-3.472,7.758-7.758v-25.341h17.067c4.285,0,7.758-3.472,7.758-7.758v-82.747
	c0-4.285-3.472-7.758-7.758-7.758H363.52l-48.249-86.6C308.064,8.037,294.388,0,279.58,0h-47.16
	c-14.808,0-28.485,8.037-35.691,20.971l-48.249,86.6h-24.876c-4.284,0-7.758,3.472-7.758,7.758v82.747
	c0,4.285,3.473,7.758,7.758,7.758h17.067v166.529h-17.067c-4.284,0-7.758,3.472-7.758,7.758v82.747c0,4.285,3.473,7.758,7.758,7.758
	h17.067v0.517c0,22.528,18.329,40.857,40.857,40.857h148.945c22.528,0,40.857-18.329,40.857-40.857v-0.517h17.067
	c4.285,0,7.758-3.472,7.758-7.758v-82.747c0-4.285-3.472-7.758-7.758-7.758h-17.067V264.275c0-4.285-3.472-7.758-7.758-7.758
	c-4.285,0-7.758,3.472-7.758,7.758v108.089h-17.067c-4.285,0-7.758,3.472-7.758,7.758v17.067h-44.11l-6.805-27.223
	c-0.864-3.454-3.967-5.876-7.526-5.876h-33.099c-3.559,0-6.662,2.422-7.526,5.876l-6.806,27.223H181.01v-17.067
	c0-4.285-3.473-7.758-7.758-7.758h-17.067V205.834h17.067c4.284,0,7.758-3.472,7.758-7.758V181.01h44.109l6.806,27.223
	c0.863,3.454,3.966,5.876,7.526,5.876h33.099c3.559,0,6.662-2.422,7.526-5.876l6.805-27.223h44.11v17.067
	c0,4.285,3.472,7.758,7.758,7.758h17.067v25.341C355.814,235.461,359.286,238.933,363.572,238.933z M355.814,471.143
	c0,13.974-11.367,25.341-25.341,25.341H181.527c-13.973,0-25.341-11.367-25.341-25.341v-0.517h17.067
	c4.284,0,7.758-3.472,7.758-7.758v-17.067h149.98v17.067c0,4.285,3.472,7.758,7.758,7.758h17.067V471.143z M346.505,387.879h34.133
	v67.232h-34.133V387.879z M231.176,412.703c3.559,0,6.662-2.422,7.526-5.876l6.806-27.223h20.986l6.805,27.223
	c0.864,3.454,3.967,5.876,7.526,5.876h50.166v17.584H181.01v-17.584H231.176z M165.495,455.111h-34.133v-67.232h34.133V455.111z
	 M165.495,190.319h-34.133v-67.232h34.133V190.319z M280.824,165.495c-3.559,0-6.662,2.422-7.526,5.876l-6.805,27.223h-20.986
	l-6.806-27.223c-0.863-3.454-3.966-5.876-7.526-5.876H181.01v-17.584h58.785c4.284,0,7.758-3.472,7.758-7.758
	c0-4.285-3.473-7.758-7.758-7.758H181.01v-17.067c0-4.285-3.473-7.758-7.758-7.758h-7.012l44.041-79.049
	c4.47-8.024,12.953-13.008,22.138-13.008h47.16c9.185,0,17.668,4.983,22.137,13.008l44.042,79.049h-7.012
	c-4.285,0-7.758,3.472-7.758,7.758v17.067h-58.096c-4.285,0-7.758,3.472-7.758,7.758c0,4.285,3.472,7.758,7.758,7.758h58.096v17.584
	H280.824z M346.505,123.087h34.133v67.232h-34.133V123.087z"/>
<path d="M257.034,165.495H256c-4.284,0-7.758,3.472-7.758,7.758s3.473,7.758,7.758,7.758h1.034c4.285,0,7.758-3.472,7.758-7.758
	S261.32,165.495,257.034,165.495z"/>
<path d="M256,412.703h1.034c4.285,0,7.758-3.472,7.758-7.758c0-4.285-3.472-7.758-7.758-7.758H256c-4.284,0-7.758,3.472-7.758,7.758
	C248.242,409.231,251.716,412.703,256,412.703z"/>
</svg>